<?xml version="1.0" encoding="utf-8"?>
<!-- Generator: Adobe Illustrator 25.4.1, SVG Export Plug-In . SVG Version: 6.00 Build 0)  -->
<svg version="1.1" id="Capa_1" xmlns="http://www.w3.org/2000/svg" xmlns:xlink="http://www.w3.org/1999/xlink" x="0px" y="0px"
	 viewBox="0 0 216.19 216.19" style="enable-background:new 0 0 216.19 216.19;" xml:space="preserve">
<style type="text/css">
	.st0{fill:#FFFFFF;}
	.st1{fill:#439DD7;}
	.st2{fill:#52BBB5;}
	.st3{fill:#ED6B6A;}
	.st4{font-family:'Bicyclette-Regular';}
	.st5{font-size:16px;}
</style>
<g id="Capa_2_00000018234149147754502550000015905829898445291906_">
</g>
<g id="Capa_4">
</g>
<g id="texto">
	<g>
		<path class="st0" d="M143.91,214.78H1.42V72.28c0-39.14,31.73-70.87,70.87-70.87h142.49V143.9
			C214.78,183.05,183.05,214.78,143.91,214.78z"/>
		<g>
			<path class="st1" d="M128.19,62.85c4.32,3.55,7.52,9.18,9.43,15.77c0.77,2.65,6.78,2.63,7.44,0.24l6.3-18.26
				c0.35-0.85-0.33-1.77-1.25-1.69L129,60.81C127.99,60.9,127.41,62.21,128.19,62.85z"/>
			<path class="st1" d="M139.23,81.73c-0.22-0.31-0.71-0.14-0.68,0.24c0.19,2.33,0.32,7.06-1.35,10.14
				c-1.48,2.73-2.94,4.9-3.79,6.09c-0.21,0.3,0.09,0.7,0.44,0.56c2.75-1.05,9.61-3.84,12.56-6.54c0.14-0.13,0.15-0.34,0.04-0.5
				L139.23,81.73z"/>
			<path class="st1" d="M149.32,89.85c-5.82-4.57-4.5-10.17-0.06-14.91c0.29-0.31,0.64-0.53,1.01-0.33l14.2,7.71
				c0.53,0.29,0.51,1.06-0.04,1.31l-14.12,6.59C149.94,90.4,149.65,90.1,149.32,89.85z"/>
			<path class="st1" d="M160.44,75.87l-7.2-12.36c-0.18-0.31-0.62-0.31-0.8-0.01c-0.76,1.27-2.28,4.25-2.12,7.61
				c0.01,0.17,0.11,0.32,0.25,0.4l9.25,5.01C160.23,76.74,160.68,76.28,160.44,75.87z"/>
			<path class="st1" d="M156.45,58.51c-1.06,0.09-1.71,1.19-1.28,2.16c2.39,5.41,9.59,21.27,14.47,19.89
				c4.77-1.35,9.95-16.51,11.96-22.06c0.39-1.06-0.46-2.17-1.59-2.07L156.45,58.51z"/>
			<path class="st1" d="M184.12,60.29l-7.34,15.79c-0.17,0.37,0.21,0.76,0.58,0.59l12.77-5.68c0.19-0.09,0.3-0.29,0.25-0.49
				c-0.3-1.39-1.57-6.64-4.41-10.42C185.49,59.42,184.47,59.55,184.12,60.29z"/>
			<path class="st1" d="M189.03,73.85l-13.78,7.58c-1.05,0.58-1.01,2.09,0.06,2.62l13.78,6.82c0.84,0.41,1.84-0.04,2.09-0.95
				c1.33-4.9,1.35-9.95,0-15.14C190.94,73.85,189.88,73.39,189.03,73.85z"/>
			<path class="st1" d="M180.57,89.58l9.28,4.37c0.33,0.16,0.53,0.51,0.48,0.87c-0.46,3.61-2.02,7.12-4.21,10.58
				c-0.38,0.6-1.28,0.5-1.51-0.16l-5.19-14.61C179.16,89.92,179.89,89.26,180.57,89.58z"/>
			<path class="st1" d="M179.21,97.32l3.7,10.77c0.29,1.06-0.61,2.08-1.7,1.91l-19.02-2.96c-1.35-0.21-1.75-1.93-0.65-2.74
				c5.1-3.78,8.84-7.16,15.28-7.77C177.54,96.47,179.02,96.62,179.21,97.32z"/>
			<path class="st1" d="M157.64,104.3c-2.61-4.01-5.48-7.51-8.87-9.99c-0.4-0.29-0.93-0.31-1.36-0.05
				c-4.91,2.93-10.15,5.63-15.72,8.11c-0.62,0.28-0.52,1.19,0.15,1.31c8.45,1.48,16.71,2.38,24.73,2.57
				C157.57,106.27,158.18,105.14,157.64,104.3z"/>
			<path class="st1" d="M153.78,91.74l14.79-7.13c0.99-0.48,2.17-0.23,2.9,0.59l5.02,5.73c1.13,1.29,0.61,3.31-1,3.9l-15.39,5.61
				c-0.87,0.32-1.85,0.11-2.52-0.53l-4.42-4.21C151.93,94.53,152.25,92.48,153.78,91.74z"/>
			<path class="st2" d="M155.2,53.43c-4.37-9.59-11.02-17.95-23.47-23.21c-0.3-0.13-0.65-0.13-0.95-0.01
				c-5.31,2.12-10.08,4.29-14.1,6.52c-0.86,0.48-0.83,1.74,0.06,2.17c11.1,5.37,23.94,10.39,37.86,15.18
				C155,54.22,155.38,53.81,155.2,53.43z"/>
			<path class="st2" d="M87.88,47.04l37.39-17.44c0.68-0.32,0.65-1.3-0.05-1.56c-17.68-6.57-35.85-5.54-54.54,3.9
				c-0.88,0.44-0.99,1.66-0.22,2.27l16.02,12.67C86.87,47.19,87.41,47.25,87.88,47.04z"/>
			<path class="st2" d="M105.69,61.35c4.96-1.52,6.27-2.34,10.96-1.65c0.22,0.03,0.44,0.04,0.66,0.02l32.34-2.98
				c0.68-0.06,0.82-1,0.18-1.25l-39.56-15.83c-0.75-0.3-1.59-0.27-2.31,0.07l-17.41,8.24c-1,0.47-1.17,1.82-0.32,2.53l12.81,10.29
				C103.77,61.41,104.77,61.63,105.69,61.35z"/>
			<path class="st2" d="M98.22,59.81l-32-24.6c-0.59-0.45-1.4-0.55-2.06-0.21c-7.17,3.63-12.21,9.48-15.99,16.62
				c-0.64,1.2,0.12,2.68,1.47,2.86l48.05,6.61C98.41,61.19,98.8,60.26,98.22,59.81z"/>
			<path class="st2" d="M65.36,61.15l-19.64,39.73c-0.31,0.63-1.24,0.6-1.5-0.06c-5.46-13.94-6.25-28.43,0.96-43.84
				c0.36-0.78,1.21-1.22,2.06-1.09l16.65,2.46C65.21,58.55,65.95,59.97,65.36,61.15z"/>
			<path class="st2" d="M70.84,59.78l12.09,1.73c1.58,0.23,2.64,1.73,2.33,3.29l-8.61,43.39c-0.2,1-1.5,1.25-2.06,0.4L58.37,83.78
				c-0.54-0.82-0.6-1.87-0.17-2.75l9.75-19.73C68.48,60.23,69.65,59.61,70.84,59.78z"/>
			<path class="st2" d="M98.81,63.74l-9.17-1.13c-1.1-0.14-2.12,0.62-2.31,1.71L81.48,97.9c-0.18,1.02,0.42,2.02,1.41,2.34
				l35.27,11.51c1.05,0.34,2-0.74,1.51-1.74l-1.74-3.59c-0.36-0.74-1.11-1.2-1.93-1.18c-3.84,0.11-15.15-0.54-21.28-11.41
				c-7.12-12.63,1.67-24.79,2.49-25.88c0.04-0.05,0.08-0.1,0.13-0.15l2.12-2.29C100.04,64.88,99.66,63.85,98.81,63.74z"/>
			<path class="st2" d="M140.05,119.15c-11.16-2.13-15.61-6.77-17.39-10.11c-0.9-1.71,0.42-3.74,2.35-3.58l44.13,3.85
				c0.8,0.06,0.94,1.17,0.19,1.44l-26.05,8.15C142.26,119.27,141.13,119.35,140.05,119.15z"/>
			<path class="st2" d="M148.09,119.74l26.24-7.95c1.63-0.49,3.23,0.95,2.85,2.61c-0.31,1.36-1.35,2.9-4.01,4.08
				c-6.2,2.77-5.85,5.2-4.17,7.49c1.68,2.29-1.79,1.73-1.79,1.73s-12.77-3.03-19.27-6.41C147.27,120.94,147.37,119.96,148.09,119.74
				z"/>
			<path class="st2" d="M54.94,86.68l-8.29,16.53c-0.02,0.04-0.04,0.08-0.06,0.13c-0.23,0.61-1.82,5.34,1.35,11.21
				c2.81,5.19,10.18,19.71,12.67,24.62c0.42,0.82,1.51,1,2.16,0.36l16.37-15.86c0.46-0.45,0.55-1.16,0.21-1.7l-22.03-35.4
				C56.76,85.67,55.42,85.73,54.94,86.68z"/>
			<path class="st2" d="M80.08,105.71l-1.71,7.59c-0.18,0.8-0.04,1.63,0.4,2.32l13.16,20.92c0.88,1.4,2.7,1.86,4.13,1.05l32.26-18.2
				c0.75-0.42,0.63-1.53-0.18-1.79l-44.11-14.15C82.31,102.9,80.48,103.94,80.08,105.71z"/>
			<path class="st2" d="M123.38,125.38l9.13-5.41c0.53-0.31,1.16-0.39,1.74-0.2l31.88,9.94c0.79,0.24,1.03,1.24,0.44,1.82
				l-13.72,13.56c-0.73,0.72-1.86,0.83-2.71,0.26l-26.82-17.8C122.54,127.03,122.57,125.87,123.38,125.38z"/>
			<path class="st2" d="M169.06,132.27l-14.3,14.46c-0.44,0.43-0.36,1.16,0.15,1.5l10.66,7.03c0.61,0.4,1.42,0.02,1.5-0.7
				c-0.22-4.51,0.06-8.73,1.38-12.34c0.92-3.66,1.8-7.27,1.67-9.42C170.2,132.21,169.49,131.85,169.06,132.27z"/>
			<path class="st2" d="M79.62,126.8l-7.65,7.74c-0.59,0.6-0.76,1.5-0.43,2.27l11.41,26.61c0.36,0.84,1.59,0.67,1.71-0.24
				l3.52-26.78c0.06-0.48-0.05-0.97-0.31-1.38l-5.03-7.89C82.13,126.02,80.55,125.86,79.62,126.8z"/>
			<path class="st2" d="M96.98,140.61L117,129.08c1.08-0.62,2.41-0.58,3.45,0.09l14.08,9.13c1.27,0.83,1.45,2.62,0.36,3.68
				l-22.4,21.72c-0.99,0.96-2.61,0.77-3.36-0.38l-12.84-19.85C95.66,142.49,95.98,141.19,96.98,140.61z"/>
			<path class="st2" d="M119.87,186.09l-28.7-45.41c-0.34-0.53-1.16-0.35-1.24,0.28l-3.64,29.9c-0.05,0.39,0.01,0.78,0.16,1.14
				l5.71,13.33c0.34,0.8,1.12,1.32,1.99,1.35l25.03,0.6C119.82,187.29,120.2,186.62,119.87,186.09z"/>
			<path class="st2" d="M112.64,166.78l25-23.75c0.79-0.75,1.99-0.87,2.91-0.28l24.94,15.98c0.84,0.54-14.67,5.8-23.48,4.61
				c-1.48,0.31-3.7,2.36-3.7,2.36s-10.63,9.47-14.31,19.03c-0.34,0.45-1.02,0.43-1.33-0.05L112.4,168.9
				C111.96,168.22,112.06,167.33,112.64,166.78z"/>
			<path class="st2" d="M67.9,138.59l-5.57,4.93c-0.45,0.4-0.73,0.95-0.79,1.55c1.22,5.93,0.17,12.88-1.89,20.29
				c-0.04,0.46,0.44,0.79,0.85,0.57l15-7.82c1.11-0.58,1.58-1.92,1.07-3.06l-7.16-16.13C69.15,138.32,68.38,138.16,67.9,138.59z"/>
			<path class="st2" d="M76.88,160.12l-17.97,9.25c-0.65,0.33-1.16,0.87-1.46,1.54c-1.08,6.27-4.47,12.95-9,19.84
				c-0.37,0.82,0.31,1.73,1.21,1.6l38.3-5.67c1.1-0.16,1.75-1.32,1.32-2.34l-9.8-23.27C79.05,160.05,77.86,159.62,76.88,160.12z"/>
			<g>
				<path class="st3" d="M102.61,83.68l1.56-5.58l2.01,7.3l2.96-15.33l2.16,15.66l2.91-18.56l3.37,24.07l3.18-9.77l2.75,6.07
					l2.9-3.87h7.94c0.03-0.43,0.07-0.86,0.07-1.3c0-10.83-8.78-19.6-19.6-19.6s-19.6,8.78-19.6,19.6c0,0.44,0.04,0.87,0.07,1.3h7.32
					V83.68z"/>
				<path class="st3" d="M126.81,84.49l-3.53,4.72l-2.42-6.4l-3.6,10.82l-3.08-22.77l-2.91,18.55L109,73.51l-2.64,15.6l-2.2-8
					l-0.95,3.38h-7.88c1.05,9.84,9.37,17.5,19.48,17.5c10.12,0,18.44-7.66,19.48-17.5H126.81z"/>
			</g>
		</g>
		<text transform="matrix(1 0 0 1 51.9118 181.4277)" class="st4 st5">CLASS VROOM</text>
	</g>
</g>
</svg>
